<!--?xml version="1.0" standalone="no"?-->
              <svg id="sw-js-blob-svg" viewBox="0 0 100 100" xmlns="http://www.w3.org/2000/svg" version="1.1">
                    <defs> 
                        <linearGradient id="sw-gradient" x1="0" x2="1" y1="1" y2="0">
                            <stop id="stop1" stop-color="rgba(248, 55, 138.695, 1)" offset="0%"></stop>
                            <stop id="stop2" stop-color="rgba(210.876, 31, 251, 1)" offset="100%"></stop>
                        </linearGradient>
                    </defs>
                <path fill="url(#sw-gradient)" d="M23.5,-38.2C30.6,-36.6,36.7,-30.7,37.5,-23.6C38.4,-16.5,34,-8.2,32.6,-0.8C31.2,6.6,32.7,13.2,31.3,19.3C29.9,25.4,25.5,31.1,19.8,32.2C14.1,33.3,7.1,29.9,0.8,28.6C-5.5,27.2,-11,27.9,-16,26.4C-20.9,24.8,-25.2,20.9,-29.1,16.2C-32.9,11.4,-36.1,5.7,-35.1,0.6C-34.1,-4.5,-28.9,-9.1,-26,-15.4C-23.1,-21.7,-22.5,-29.9,-18.5,-33.3C-14.6,-36.7,-7.3,-35.4,0.4,-36.2C8.2,-36.9,16.4,-39.8,23.5,-38.2Z" width="100%" height="100%" transform="translate(50 50)" stroke-width="0" style="transition: 0.3s;" stroke="url(#sw-gradient)"></path>
              </svg>