<svg id="visual" viewBox="0 0 900 600" width="900" height="600" xmlns="http://www.w3.org/2000/svg" xmlns:xlink="http://www.w3.org/1999/xlink" version="1.1"><rect x="0" y="0" width="900" height="600" fill="#ffffff"></rect><g transform="translate(495.10930272253165 371.67013807555463)"><path d="M256.9 -360.8C289.2 -279 241.5 -156.6 233.2 -62.1C224.8 32.4 255.7 98.9 239.7 149.3C223.6 199.6 160.5 233.7 90 268.8C19.4 303.8 -58.7 339.9 -144.4 335.3C-230.1 330.8 -323.3 285.6 -349.6 214.3C-375.9 143 -335.2 45.6 -317.5 -56.2C-299.8 -157.9 -305.1 -264 -256.1 -342.8C-207 -421.7 -103.5 -473.3 4.4 -478.6C112.3 -483.8 224.5 -442.6 256.9 -360.8" fill="#ff458f"></path></g></svg>